<?xml version="1.0" encoding="UTF-8"?>
<svg width="1200" height="900" version="1.1" viewBox="0 0 1200 900" xmlns="http://www.w3.org/2000/svg">
  <defs>
    <filter id="filter2" x="-.07803" y="-.077813" width="1.1531" height="1.1555" style="color-interpolation-filters:sRGB">
      <feGaussianBlur stdDeviation="21.761529"/>
    </filter>
  </defs>
  <rect width="1200" height="900" style="fill:#000000"/>
  <text transform="translate(-138.77 -63.423)" x="739.04297" y="88.235291" style="fill-opacity:.5;fill:#87ded5;font-family:Calibri;font-size:24px;font-weight:bold;inline-size:1193.62;letter-spacing:0px;line-height:1;stroke-width:5;text-align:center;text-anchor:middle;white-space:pre" xml:space="preserve"><tspan x="739.04297" y="88.235291"><tspan style="font-weight:normal">3.141592653589793238462643383279502884197169399375105820974944592307816406286208998628034825342117</tspan></tspan><tspan x="739.04297" y="112.23529"><tspan style="font-weight:normal">06798214808651328230664709384460955058223172535940812848111745028410270193852110555964462294895493</tspan></tspan><tspan x="739.04297" y="136.23529"><tspan style="font-weight:normal">03819644288109756659334461284756482337867831652712019091456485669234603486104543266482133936072602</tspan></tspan><tspan x="739.04297" y="160.23529"><tspan style="font-weight:normal">49141273724587006606315588174881520920962829254091715364367892590360011330530548820466521384146951</tspan></tspan><tspan x="739.04297" y="184.23529"><tspan style="font-weight:normal">94151160943305727036575959195309218611738193261179310511854807446237996274956735188575272489122793</tspan></tspan><tspan x="739.04297" y="208.23529"><tspan style="font-weight:normal">81830119491298336733624406566430860213949463952247371907021798609437027705392171762931767523846748</tspan></tspan><tspan x="739.04297" y="232.23529"><tspan style="font-weight:normal">18467669405132000568127145263560827785771342757789609173637178721468440901224953430146549585371050</tspan></tspan><tspan x="739.04297" y="256.23529"><tspan style="font-weight:normal">79227968925892354201995611212902196086403441815981362977477130996051870721134999999837297804995105</tspan></tspan><tspan x="739.04297" y="280.23529"><tspan style="font-weight:normal">97317328160963185950244594553469083026425223082533446850352619311881710100031378387528865875332083</tspan></tspan><tspan x="739.04297" y="304.23529"><tspan style="font-weight:normal">81420617177669147303598253490428755468731159562863882353787593751957781857780532171226806613001927</tspan></tspan><tspan x="739.04297" y="328.23529"><tspan style="font-weight:normal">87661119590921642019893809525720106548586327886593615338182796823030195203530185296899577362259941</tspan></tspan><tspan x="739.04297" y="352.23529"><tspan style="font-weight:normal">38912497217752834791315155748572424541506959508295331168617278558890750983817546374649393192550604</tspan></tspan><tspan x="739.04297" y="376.23529"><tspan style="font-weight:normal">00927701671139009848824012858361603563707660104710181942955596198946767837449448255379774726847104</tspan></tspan><tspan x="739.04297" y="400.23529"><tspan style="font-weight:normal">04753464620804668425906949129331367702898915210475216205696602405803815019351125338243003558764024</tspan></tspan><tspan x="739.04297" y="424.23529"><tspan style="font-weight:normal">74964732639141992726042699227967823547816360093417216412199245863150302861829745557067498385054945</tspan></tspan><tspan x="739.04297" y="448.23529"><tspan style="font-weight:normal">88586926995690927210797509302955321165344987202755960236480665499119881834797753566369807426542527</tspan></tspan><tspan x="739.04297" y="472.23529"><tspan style="font-weight:normal">86255181841757467289097777279380008164706001614524919217321721477235014144197356854816136115735255</tspan></tspan><tspan x="739.04297" y="496.23529"><tspan style="font-weight:normal">21334757418494684385233239073941433345477624168625189835694855620992192221842725502542568876717904</tspan></tspan><tspan x="739.04297" y="520.23529"><tspan style="font-weight:normal">94601653466804988627232791786085784383827967976681454100953883786360950680064225125205117392984896</tspan></tspan><tspan x="739.04297" y="544.23529"><tspan style="font-weight:normal">08412848862694560424196528502221066118630674427862203919494504712371378696095636437191728746776465</tspan></tspan><tspan x="739.04297" y="568.23529"><tspan style="font-weight:normal">75739624138908658326459958133904780275900994657640789512694683983525957098258226205224894077267194</tspan></tspan><tspan x="739.04297" y="592.23529"><tspan style="font-weight:normal">78268482601476990902640136394437455305068203496252451749399651431429809190659250937221696461515709</tspan></tspan><tspan x="739.04297" y="616.23529"><tspan style="font-weight:normal">85838741059788595977297549893016175392846813826868386894277415599185592524595395943104997252468084</tspan></tspan><tspan x="739.04297" y="640.23529"><tspan style="font-weight:normal">59872736446958486538367362226260991246080512438843904512441365497627807977156914359977001296160894</tspan></tspan><tspan x="739.04297" y="664.23529"><tspan style="font-weight:normal">41694868555848406353422072225828488648158456028506016842739452267467678895252138522549954666727823</tspan></tspan><tspan x="739.04297" y="688.23529"><tspan style="font-weight:normal">98645659611635488623057745649803559363456817432411251507606947945109659609402522887971089314566913</tspan></tspan><tspan x="739.04297" y="712.23529"><tspan style="font-weight:normal">68672287489405601015033086179286809208747609178249385890097149096759852613655497818931297848216829</tspan></tspan><tspan x="739.04297" y="736.23529"><tspan style="font-weight:normal">98948722658804857564014270477555132379641451523746234364542858444795265867821051141354735739523113</tspan></tspan><tspan x="739.04297" y="760.23529"><tspan style="font-weight:normal">42716610213596953623144295248493718711014576540359027993440374200731057853906219838744780847848968</tspan></tspan><tspan x="739.04297" y="784.23529"><tspan style="font-weight:normal">33214457138687519435064302184531910484810053706146806749192781911979399520614196634287544406437451</tspan></tspan><tspan x="739.04297" y="808.23529"><tspan style="font-weight:normal">23718192179998391015919561814675142691239748940907186494231961567945208095146550225231603881930142</tspan></tspan><tspan x="739.04297" y="832.23529"><tspan style="font-weight:normal">09376213785595663893778708303906979207734672218256259966150142150306803844773454920260541466592520</tspan></tspan><tspan x="739.04297" y="856.23529"><tspan style="font-weight:normal">14974428507325186660021324340881907104863317346496514539057962685610055081066587969981635747363840</tspan></tspan><tspan x="739.04297" y="880.23529"><tspan style="font-weight:normal">52571459102897064140110971206280439039759515677157700420337869936007230558763176359421873125147120</tspan></tspan><tspan x="739.04297" y="904.23529"><tspan style="font-weight:normal">53292819182618612586732157919841484882916447060957527069572209175671167229109816909152801735067127</tspan></tspan><tspan x="739.04297" y="928.23529"><tspan style="font-weight:normal">48583222871835209353965725121083579151369882091444210067510334671103141267111369908658516398315019</tspan></tspan><tspan x="739.04297" y="952.23529"><tspan style="font-weight:normal">70165151168517143765761835155650884909989859982387345528331635507647918535893226185489632132933089</tspan></tspan><tspan x="739.04297" y="976.23529"><tspan style="font-weight:normal">85706420467525907091548141654985946163718027098199430992448895757128289059232332609729971208443357</tspan></tspan><tspan x="739.04297" y="1000.2353"><tspan style="font-weight:normal">32654893823911932597463667305836041428138830320382490375898524374417029132765618093773444030707469</tspan></tspan><tspan x="739.04297" y="1024.2353"><tspan style="font-weight:normal">21120191302033038019762110110044929321516084244485963766983895228684783123552658213144957685726243</tspan></tspan><tspan x="739.04297" y="1048.2354"><tspan style="font-weight:normal">3441893039686426243410773226978028073189154411010446823252716201052652272111660397</tspan></tspan></text>
  <path d="m218.65 305.63 27.791 2.0586c28.82-32.594 40.143-129 209.98-110.13-6.1758 413.09-187.33 456.66-176.01 541.41 4.1172 48.034 42.201 77.54 83.373 79.256 130.03-4.4603 124.2-179.78 164.69-621.69h167.77c-8.9205 155.77-33.28 311.53-36.025 464.21 2.0586 101.56 63.816 155.77 145.13 156.45 133.81 4.4603 176.01-151.65 176.01-218.21l-28.82 2e-5c-2.7448 54.896-29.163 94.352-85.431 96.754-153.36 2.0586-68.963-269.67-67.933-497.15l182.18 1.0293-1.0293-116.31c-757.23-3.668-661.12-18.513-761.68 222.33z" style="fill:none;filter:url(#filter2);stroke-width:10;stroke:#87ded5"/>
  <path d="m218.65 305.63 27.791 2.0586c28.82-32.594 40.143-129 209.98-110.13-6.1758 413.09-187.33 456.66-176.01 541.41 4.1172 48.034 42.201 77.54 83.373 79.256 130.03-4.4603 124.2-179.78 164.69-621.69h167.77c-8.9205 155.77-33.28 311.53-36.025 464.21 2.0586 101.56 63.816 155.77 145.13 156.45 133.81 4.4603 176.01-151.65 176.01-218.21l-28.82 2e-5c-2.7448 54.896-29.163 94.352-85.431 96.754-153.36 2.0586-68.963-269.67-67.933-497.15l182.18 1.0293-1.0293-116.31c-757.23-3.668-661.12-18.513-761.68 222.33z" style="fill-opacity:.30196;fill:#22776e;stroke-width:2;stroke:#38c6ba"/>
</svg>
